<?xml version="1.0" encoding="UTF-8"?>
<svg xmlns="http://www.w3.org/2000/svg" version="1.1" viewBox="0 0 1276 976">
  <defs>
    <style>
      .cls-1 {
        fill: #fff;
      }
    </style>
  </defs>
  <!-- Generator: Adobe Illustrator 28.6.0, SVG Export Plug-In . SVG Version: 1.2.0 Build 709)  -->
  <g>
    <g id="Ebene_2">
      <g>
        <rect class="cls-1" x="45.7" y="43" width="47.3" height="343" rx="10" ry="10"/>
        <rect class="cls-1" x="45.7" y="591.3" width="47.3" height="50" rx="10" ry="10"/>
        <rect class="cls-1" x="134.9" y="154" width="44.6" height="232" rx="10" ry="10"/>
        <rect class="cls-1" x="134.9" y="591.3" width="44.6" height="121.5" rx="10" ry="10"/>
        <rect class="cls-1" x="253.7" y="97.2" width="41.9" height="288.8" rx="10" ry="10"/>
        <rect class="cls-1" x="253.7" y="591.3" width="41.9" height="60.8" rx="10" ry="10"/>
        <rect class="cls-1" x="352.3" y="282.4" width="39.2" height="103.6" rx="10" ry="10"/>
        <rect class="cls-1" x="352.3" y="591.3" width="39.2" height="198.5" rx="10" ry="10"/>
        <rect class="cls-1" x="498.1" y="165.9" width="36.5" height="220.1" rx="10" ry="10"/>
        <rect class="cls-1" x="498.1" y="591.3" width="36.5" height="124.2" rx="10" ry="10"/>
        <rect class="cls-1" x="577.8" y="220.8" width="33.8" height="165.2" rx="7" ry="7"/>
        <rect class="cls-1" x="577.8" y="591.3" width="33.8" height="151.8" rx="7" ry="7"/>
        <rect class="cls-1" x="707.5" y="283.8" width="31.1" height="102.3" rx="7" ry="7"/>
        <rect class="cls-1" x="707.5" y="591.3" width="31.1" height="198.5" rx="7" ry="7"/>
        <rect class="cls-1" x="777.7" y="234.8" width="31.1" height="151.2" rx="7" ry="7"/>
        <rect class="cls-1" x="777.7" y="591.3" width="31.1" height="164.8" rx="7" ry="7"/>
        <rect class="cls-1" x="853.3" y="261.8" width="28.4" height="124.2" rx="7" ry="7"/>
        <rect class="cls-1" x="853.3" y="591.3" width="28.4" height="220.1" rx="7" ry="7"/>
        <rect class="cls-1" x="964.1" y="187.5" width="25.7" height="198.5" rx="5" ry="5"/>
        <rect class="cls-1" x="964.1" y="591.3" width="25.7" height="104" rx="5" ry="5"/>
        <rect class="cls-1" x="1039.7" y="325.3" width="23" height="60.8" rx="5" ry="5"/>
        <rect class="cls-1" x="1039.7" y="591.3" width="23" height="289" rx="5" ry="5"/>
        <rect class="cls-1" x="1151.8" y="264.5" width="23" height="121.5" rx="5" ry="5"/>
        <rect class="cls-1" x="1151.8" y="591.3" width="23" height="232.3" rx="5" ry="5"/>
        <rect class="cls-1" x="1204.5" y="336.1" width="20.3" height="50" rx="5" ry="5"/>
        <rect class="cls-1" x="1204.5" y="591.3" width="20.3" height="341.7" rx="5" ry="5"/>
        <g>
          <path class="cls-1" d="M37.4,539.3l9.5-11.1c9.7,9.9,23.3,16,37.3,16s27.8-8.7,27.8-21.5-9.7-17.8-22.1-23.3l-19.2-8.5c-12.4-5.3-26.7-14.6-26.7-34.2s17.6-35.2,41.7-35.2,30,6.7,39.3,16l-9.3,11.3c-8.1-7.7-18.4-12.4-30-12.4s-24.5,7.5-24.5,19.2,11.6,17.6,21.9,21.9l19,8.3c15.4,6.5,27.3,15.8,27.3,35.4s-17.4,37.9-45.4,37.9-35-7.5-46.6-19.8h0Z"/>
          <path class="cls-1" d="M151.6,526.2v-54.3h-14.6v-12.6l15.4-1,2-31.6h14v31.6h26.7v13.6h-26.7v54.7c0,12,4.1,18.8,15.2,18.8s7.3-.6,11.3-2.4l3.4,12c-5.3,2.4-11.9,4.2-18.6,4.2-21.1,0-28.2-13.4-28.2-33h0Z"/>
          <path class="cls-1" d="M217.5,458.3h13.8l1.4,17.8h.6c6.9-12.4,17-20.3,28-20.3s7.5.6,10.5,2l-3.6,14.4c-2.8-.8-5.1-1.2-8.9-1.2-8.3,0-18.2,5.9-24.9,22.5v63.2h-16.8v-98.5h0Z"/>
          <path class="cls-1" d="M277,531.2c0-21.9,18.2-32.4,60.4-37.1-.2-12.4-4.2-24.3-20.3-24.3s-21.7,5.1-29.4,10.1l-6.5-11.3c9.1-6.1,22.9-12.8,38.7-12.8,23.9,0,34.2,16,34.2,40.3v60.6h-13.8l-1.6-11.8h-.6c-9.3,7.9-20,14.2-32.4,14.2s-28.8-10.1-28.8-28h0ZM337.4,532.9v-26.7c-33.2,3.9-44,11.3-44,24.1s7.5,15.2,17,15.2,17.4-4.2,26.9-12.6Z"/>
          <path class="cls-1" d="M382.6,427.1c0-6.5,4.7-10.9,11.1-10.9s11.1,4.5,11.1,10.9-4.7,10.9-11.1,10.9-11.1-4.2-11.1-10.9ZM385.2,458.3h16.8v98.5h-16.8v-98.5Z"/>
          <path class="cls-1" d="M435.2,458.3h13.8l1.4,14.2h.6c9.3-9.3,19.5-16.6,33-16.6,20.9,0,30.2,13.4,30.2,38.5v62.4h-16.8v-60.2c0-18.4-5.7-26.1-18.6-26.1s-17,5.1-26.7,15v71.3h-16.8v-98.5h0Z"/>
          <path class="cls-1" d="M540,490.3c0-42.7,25.1-68.9,59-68.9s28.8,7.7,36.7,16.4l-9.3,10.5c-7.1-7.3-15.8-12-27.1-12-24.9,0-41.5,20.5-41.5,53.5s15.8,54.3,40.9,54.3,22.3-5.1,30.8-14.4l9.3,10.1c-10.7,12.4-23.7,19.2-40.7,19.2-33.2,0-57.9-25.5-57.9-68.9h0Z"/>
          <path class="cls-1" d="M655.7,531.2c0-21.9,18.2-32.4,60.4-37.1-.2-12.4-4.2-24.3-20.3-24.3s-21.7,5.1-29.4,10.1l-6.5-11.3c9.1-6.1,22.9-12.8,38.7-12.8,23.9,0,34.2,16,34.2,40.3v60.6h-13.8l-1.6-11.8h-.6c-9.3,7.9-20,14.2-32.4,14.2s-28.8-10.1-28.8-28h0ZM716,532.9v-26.7c-33.2,3.9-44,11.3-44,24.1s7.5,15.2,17,15.2,17.4-4.2,26.9-12.6Z"/>
          <path class="cls-1" d="M752.9,545l7.7-9.7c8.5,7.1,17.4,10.7,29.6,10.7s19.2-6.7,19.2-15.2-10.9-14.4-22.1-18.4c-14.8-5.3-29-12.4-29-28.6s12.6-28,34-28,22.9,4.7,30.6,11.1l-7.7,9.7c-6.9-5.1-14-7.9-22.7-7.9-12.6,0-18,6.9-18,14.2s8.5,12.6,20.9,16.8c15.4,5.5,30.2,12.1,30.2,30s-12.8,29.4-36.1,29.4-27.5-5.3-36.7-14.2h0Z"/>
          <path class="cls-1" d="M841.4,507.8c0-33,22.1-51.9,47.4-51.9s21.9,5.1,28.8,11.5l-8.3,10.5c-5.5-5.1-11.8-8.1-19.7-8.1-17.8,0-30.8,15.2-30.8,37.9s12.2,37.5,30.2,37.5,17.2-4,23.1-9.3l7.3,10.7c-8.9,8.1-20.1,12.6-31.8,12.6-26.1,0-46.2-18.8-46.2-51.5h0Z"/>
          <path class="cls-1" d="M933,531.2c0-21.9,18.2-32.4,60.4-37.1-.2-12.4-4.2-24.3-20.3-24.3s-21.7,5.1-29.4,10.1l-6.5-11.3c9.1-6.1,22.9-12.8,38.7-12.8,23.9,0,34.2,16,34.2,40.3v60.6h-13.8l-1.6-11.8h-.6c-9.3,7.9-20,14.2-32.4,14.2s-28.8-10.1-28.8-28h0ZM993.3,532.9v-26.7c-33.2,3.9-44,11.3-44,24.1s7.5,15.2,17,15.2,17.4-4.2,26.9-12.6Z"/>
          <path class="cls-1" d="M1034.1,507.8c0-32,20.3-51.9,42.7-51.9s18.8,4.2,27.6,11.3l-.8-16.8v-37.9h16.8v144.2h-13.8l-1.4-11.5h-.6c-7.7,7.5-18.2,14-29.8,14-24.7,0-40.7-18.6-40.7-51.5h0ZM1103.6,531.7v-51.5c-8.3-7.5-15.8-10.1-23.9-10.1-15.6,0-28.2,15-28.2,37.5s9.7,37.5,26.9,37.5,17-4.5,25.1-13.4h0Z"/>
          <path class="cls-1" d="M1146.3,507.5c0-32,21.7-51.7,44.2-51.7s39.5,17.8,39.5,46.2-.2,6.7-.8,9.9h-66.2c1.4,20.3,13.8,33.6,32.4,33.6s17.8-2.6,24.7-7.3l5.9,10.7c-8.5,6.1-19,10.1-32.6,10.1-26.3,0-47-19-47-51.7h0ZM1215,499c0-19.5-9.1-29.8-24.1-29.8s-25.9,10.9-28,29.8h52.1Z"/>
        </g>
      </g>
    </g>
  </g>
</svg>